<?xml version="1.0" encoding="utf-8"?>
<!-- Generator: Adobe Illustrator 27.1.1, SVG Export Plug-In . SVG Version: 6.00 Build 0)  -->
<svg version="1.1" id="Layer_1" xmlns="http://www.w3.org/2000/svg" xmlns:xlink="http://www.w3.org/1999/xlink" x="0px" y="0px"
	 viewBox="0 0 216 216" style="enable-background:new 0 0 216 216;" xml:space="preserve">
<style type="text/css">
	.st0{fill:#FFFFFF;}
</style>
<g>
	<g>
		<g>
			<g>
				<path class="st0" d="M92.6,65.6c0-8.5,6.8-15.3,15.3-15.3c8.5,0,15.3,6.8,15.3,15.3L92.6,65.6z"/>
			</g>
		</g>
		<g>
			<g>
				<path class="st0" d="M123.4,150.4c0,8.5-6.8,15.3-15.3,15.3s-15.3-6.8-15.3-15.3L123.4,150.4z"/>
			</g>
		</g>
		<g>
			
				<rect x="85.8" y="122" transform="matrix(0.9725 -0.233 0.233 0.9725 -26.1155 28.4595)" class="st0" width="43.3" height="5.5"/>
		</g>
		<g>
			
				<rect x="85.7" y="88.4" transform="matrix(0.9725 -0.233 0.233 0.9725 -18.2886 27.5216)" class="st0" width="43.3" height="5.5"/>
		</g>
	</g>
</g>
<path class="st0" d="M146.9,138.8l-8.1-0.8c-1.8-0.2-1.9-0.4-1.9-2l0-25.6l0-7.2l0-23.5c0-1.5,0.1-1.7,1.9-1.9l8.1-0.8l0-5.4
	l-30.7,0.1l0,5.4l7.6,0.7c1.7,0.1,1.9,0.5,1.9,2l0,19.7L89.8,108l0-4.7l0-23.5c0-1.5,0.1-1.7,1.9-1.9l8.1-0.8l0-5.4l-30.7,0.1l0,5.4
	l7.6,0.7c1.7,0.1,1.9,0.5,1.9,2l0.1,56.5c0,1.5-0.2,1.8-1.9,2l-7.6,0.7l0,5.4l30.7-0.1l0-5.4l-8.1-0.8c-1.8-0.2-1.9-0.4-1.9-2
	l0-19.8l35.8-8.6l0,28.4c0,1.5-0.2,1.8-1.9,2l-7.6,0.7l0,5.4l30.7-0.1L146.9,138.8z"/>
</svg>
