<?xml version="1.0" encoding="utf-8"?>
<!-- Generator: Adobe Illustrator 27.1.1, SVG Export Plug-In . SVG Version: 6.00 Build 0)  -->
<svg version="1.1" id="Layer_1" xmlns="http://www.w3.org/2000/svg" xmlns:xlink="http://www.w3.org/1999/xlink" x="0px" y="0px"
	 viewBox="0 0 216 216" style="enable-background:new 0 0 216 216;" xml:space="preserve">
<style type="text/css">
	.st0{fill:#FFB53E;}
</style>
<g>
	<path class="st0" d="M67.9,104.8H52.6V86h3.6v15.3h11.7V104.8z"/>
	<path class="st0" d="M92.4,104.8h-4l-1.9-4.1h-9.6l-2,4.1h-4L79.9,86h3.6L92.4,104.8z M84.8,97.1l-3.1-6.6l-3.1,6.6H84.8z"/>
	<path class="st0" d="M113.1,95.4c0,2.6-0.9,4.8-2.8,6.7c-1.8,1.8-4.1,2.8-6.7,2.8h-8.3V86h8.3c2.6,0,4.8,0.9,6.7,2.8
		C112.1,90.6,113.1,92.8,113.1,95.4z M109.4,95.4c0-1.6-0.6-3-1.7-4.1c-1.1-1.1-2.5-1.7-4.1-1.7h-4.7v11.7h4.7c1.6,0,3-0.6,4.1-1.7
		C108.9,98.4,109.4,97,109.4,95.4z"/>
	<path class="st0" d="M117.9,104.8V86h3.6v18.9H117.9z"/>
	<path class="st0" d="M141.7,104.8h-15.3V86h15v3.6h-11.4V93h6.6v3.7h-6.6v4.6h11.7V104.8z"/>
	<path class="st0" d="M163.4,99.2c0,1.8-0.7,3.3-2.2,4.4c-1.4,1.1-3.5,1.6-6.1,1.6c-3.6,0-6.7-0.9-9.4-2.8l2.1-2.9
		c2.1,1.4,4.5,2.1,7.2,2.2c1.7-0.1,2.9-0.3,3.7-0.7c0.8-0.4,1.2-1,1.2-1.7c0.1-0.7-0.3-1.3-1.2-1.7c-0.8-0.4-2.2-0.8-4-0.9
		c-3.2-0.3-5.3-1-6.4-1.9c-1.1-0.9-1.6-2.2-1.6-3.7c0-1.6,0.8-2.9,2.3-3.8c1.5-0.9,3.3-1.4,5.5-1.4c2.6,0,5.1,0.7,7.5,2.2l-2,2.9
		c-1.7-1-3.6-1.5-5.8-1.5c-1,0-1.9,0.1-2.7,0.3c-0.9,0.2-1.3,0.7-1.2,1.3c0,0.6,0.3,1,1.1,1.3c0.8,0.3,2.1,0.6,3.9,0.8
		c2.9,0.3,5,1,6.1,2.2C162.8,96.5,163.4,97.8,163.4,99.2z"/>
	<path class="st0" d="M85.1,138.6h-3.6v-11.2l-6.6,11.2l-6.7-11.2v11.2h-3.5v-18.9H68l6.9,11.9l6.8-11.9h3.4V138.6z"/>
	<path class="st0" d="M105.2,138.6H89.9v-18.9h15v3.6H93.5v3.4h6.6v3.7h-6.6v4.6h11.7V138.6z"/>
	<path class="st0" d="M127.8,138.6h-3.6l-10.6-13v13h-3.6v-18.9h3.5l10.6,13.2v-13.2h3.6V138.6z"/>
	<path class="st0" d="M150.7,129.7c0,2-0.4,3.6-1.1,4.9c-0.8,1.3-1.8,2.3-3.2,3.1c-1.4,0.8-2.9,1.2-4.4,1.2c-1.6,0-3-0.4-4.4-1.2
		c-1.4-0.8-2.5-1.9-3.2-3.2c-0.8-1.4-1.2-3-1.2-4.9v-9.9h3.6v9.9c0,1.2,0.2,2.2,0.7,3c0.5,0.8,1.1,1.4,1.9,1.9
		c0.8,0.5,1.7,0.7,2.6,0.7c0.9,0,1.8-0.2,2.6-0.7c0.8-0.5,1.4-1.1,1.9-1.9c0.5-0.9,0.7-1.9,0.7-3v-9.9h3.5V129.7z"/>
</g>
</svg>
