<?xml version="1.0" encoding="utf-8"?>
<!-- Generator: Adobe Illustrator 27.1.1, SVG Export Plug-In . SVG Version: 6.00 Build 0)  -->
<svg version="1.1" id="Layer_1" xmlns="http://www.w3.org/2000/svg" xmlns:xlink="http://www.w3.org/1999/xlink" x="0px" y="0px"
	 viewBox="0 0 216 216" style="enable-background:new 0 0 216 216;" xml:space="preserve">
<style type="text/css">
	.st0{fill:#191919;}
	.st1{fill:#FFB53E;}
</style>
<circle class="st0" cx="108" cy="108" r="106.8"/>
<g>
	<g>
		<path class="st1" d="M99.5,197.5c-1.7-0.2-3.5-0.4-5.2-0.7c-2.6-0.4-5.2-0.9-7.7-1.5l0.7-2.7c2.5,0.6,5,1.1,7.5,1.5
			c2.2,0.3,4.4,0.6,6.5,0.8l-0.2,2.8C100.5,197.6,100,197.5,99.5,197.5z M113.3,197.8l-0.2-2.8c4.7-0.3,9.4-0.9,14.1-2l0.6,2.8
			C123,196.8,118.1,197.5,113.3,197.8z M74.9,191.6c-4.5-1.8-9-4-13.2-6.5l1.5-2.4c4.1,2.4,8.3,4.5,12.7,6.3L74.9,191.6z
			 M139.5,192.2l-1-2.6c4.4-1.7,8.7-3.7,12.8-6l1.4,2.4C148.5,188.4,144,190.5,139.5,192.2z M51.8,178.1c-3.8-3.1-7.4-6.4-10.6-10.1
			l2.1-1.9c3.2,3.5,6.6,6.8,10.3,9.8L51.8,178.1z M162.9,179.2l-1.7-2.2c3.7-2.9,7.3-6.1,10.5-9.5l2.1,1.9
			C170.4,172.9,166.8,176.2,162.9,179.2z M33.6,158.4c-2.7-4-5.2-8.3-7.2-12.8l2.6-1.2c2,4.3,4.3,8.4,7,12.4L33.6,158.4z
			 M181.5,159.9l-2.3-1.6c2.7-3.9,5.2-8,7.2-12.2l2.5,1.2C186.8,151.6,184.3,155.9,181.5,159.9z M22,134.3
			c-1.4-4.7-2.5-9.5-3.1-14.3l2.8-0.4c0.6,4.7,1.6,9.3,3,13.9L22,134.3z M193.5,135.9l-2.7-0.9c1.5-4.5,2.6-9.1,3.3-13.8V121
			l2.8,0.4v0.1C196.1,126.5,195,131.3,193.5,135.9z M18.1,107.8c0-2.7,0.1-5.5,0.4-8.3c0.2-1.7,0.4-3.5,0.7-5.2
			c0.1-0.4,0.1-0.7,0.2-1.1l2.8,0.5c-0.2,0.3-0.2,0.7-0.3,1c-0.3,1.7-0.5,3.4-0.6,5.1c-0.3,2.7-0.4,5.4-0.4,8L18.1,107.8z
			 M195.1,109.3c0.1-4.7-0.2-9.5-0.9-14.2l2.8-0.4c0.7,4.8,1,9.7,1,14.6H195.1z M24.8,82.1l-2.7-0.8c1.4-4.7,3.3-9.2,5.5-13.6
			l2.5,1.3C28,73.2,26.2,77.6,24.8,82.1z M191.6,83.5c-1.3-4.5-3-9-5.1-13.2l2.5-1.2c2.1,4.4,3.9,9,5.3,13.7L191.6,83.5z M36.1,58.8
			l-2.3-1.6c2.8-4,5.9-7.8,9.3-11.4l2,2C41.8,51.2,38.8,54.9,36.1,58.8z M180.7,60c-2.6-3.9-5.5-7.7-8.8-11.2l2.1-1.9
			c3.3,3.6,6.4,7.5,9,11.5L180.7,60z M53.8,39.8L52,37.6c3.8-3,7.9-5.8,12.2-8.2l1.4,2.5C61.5,34.2,57.5,36.8,53.8,39.8z
			 M163.3,40.7c-3.7-3-7.6-5.7-11.7-8.1l1.4-2.4c4.2,2.4,8.3,5.3,12,8.4L163.3,40.7z M76.3,26.8l-1-2.6c4.5-1.8,9.3-3.2,14-4.2
			l0.6,2.8C85.3,23.7,80.7,25.1,76.3,26.8z M141,27.4c-4.4-1.8-8.9-3.2-13.5-4.3l0.6-2.8c4.8,1.1,9.5,2.6,14,4.4L141,27.4z"/>
	</g>
	<path class="st1" d="M113.2,24.5c-0.1,0.2-0.2,0.5-0.3,0.7c-0.7,2.4,0.8,4.9,3.2,5.6c1.2,0.3,2.3,0.2,3.3-0.4l3.4,3.1l0.1-3
		l-1.8-1.7c0.3-0.4,0.5-0.8,0.6-1.3c0.7-2.4-0.8-4.9-3.2-5.6c-1.4-0.4-2.8-0.1-3.9,0.7l-4-3.9l4-3.9c1.1,0.8,2.5,1.1,3.9,0.7
		c2.4-0.7,3.8-3.2,3.2-5.6c-0.7-2.4-3.2-3.8-5.6-3.2c-2.4,0.7-3.8,3.2-3.2,5.6c0.1,0.3,0.2,0.5,0.3,0.7l-4.9,3.3l-11.7-11L94.3,6
		L105,18.9L94.3,31.7l2.3,0.7l11.6-11.3L113.2,24.5z M117.7,25c0.8,0.2,1.3,1.1,1.1,1.9c-0.2,0.8-1.1,1.3-1.9,1.1
		c-0.8-0.2-1.3-1.1-1.1-1.9C116,25.2,116.9,24.7,117.7,25z M115.8,11.8c-0.2-0.8,0.3-1.7,1.1-1.9c0.8-0.2,1.7,0.3,1.9,1.1
		c0.2,0.8-0.3,1.7-1.1,1.9C116.9,13,116,12.6,115.8,11.8z"/>
</g>
</svg>
