<?xml version="1.0" encoding="utf-8"?>
<!-- Generator: Adobe Illustrator 27.1.1, SVG Export Plug-In . SVG Version: 6.00 Build 0)  -->
<svg version="1.1" id="Layer_1" xmlns="http://www.w3.org/2000/svg" xmlns:xlink="http://www.w3.org/1999/xlink" x="0px" y="0px"
	 viewBox="0 0 216 216" style="enable-background:new 0 0 216 216;" xml:space="preserve">
<style type="text/css">
	.st0{fill:#191919;}
	.st1{enable-background:new    ;}
	.st2{fill:#FFB53E;}
</style>
<circle class="st0" cx="108" cy="108" r="106.8"/>
<g class="st1">
	<path class="st2" d="M70.3,95.8c0,2.4-0.9,4.5-2.6,6.2c-1.7,1.7-3.8,2.6-6.3,2.6c-2.8,0-5.1-1-6.9-3c-1.6-1.8-2.5-4.2-2.5-7.1
		c0-3,0.9-5.5,2.8-7.3s4.2-2.8,7.2-2.8c2,0,3.7,0.5,5.2,1.5c0.9,0.6,1.8,1.5,2.8,2.8l-3.1,2.1c-1.3-1.8-3-2.7-5-2.7
		c-1.9,0-3.4,0.6-4.5,1.7s-1.7,2.7-1.7,4.7c0,1.8,0.5,3.3,1.6,4.5c1,1.2,2.4,1.7,4.1,1.7c1.7,0,3.1-0.6,4-1.8c0.4-0.4,0.7-1,1-1.7
		H62v-3.8h8.3V95.8z"/>
	<path class="st2" d="M90.2,104.3H74.3V84.7h15.5v3.7H78V92h6.9v3.8H78v4.8h12.1V104.3z"/>
	<path class="st2" d="M113.6,104.3h-3.7L99,90.8v13.5h-3.7V84.7h3.6l11,13.7V84.7h3.8V104.3z"/>
	<path class="st2" d="M135,88.5h-6.6v15.8h-3.7V88.5h-6.5v-3.7H135V88.5z"/>
	<path class="st2" d="M157,98.5c0,1.9-0.8,3.4-2.3,4.5c-1.5,1.1-3.6,1.7-6.3,1.7c-3.8,0-7-1-9.7-2.9l2.1-3c2.2,1.5,4.6,2.2,7.5,2.2
		c1.7-0.1,3-0.3,3.8-0.7c0.8-0.4,1.2-1,1.3-1.8c0.1-0.7-0.3-1.3-1.2-1.8s-2.2-0.8-4.1-1c-3.3-0.3-5.5-1-6.6-2
		c-1.1-1-1.7-2.2-1.6-3.8c0-1.7,0.8-3,2.4-4c1.6-1,3.5-1.5,5.7-1.5c2.6,0,5.2,0.8,7.8,2.3l-2,3c-1.7-1-3.7-1.5-6-1.5
		c-1,0-1.9,0.1-2.8,0.3c-0.9,0.3-1.3,0.7-1.3,1.3c0,0.6,0.3,1,1.1,1.4c0.8,0.3,2.2,0.6,4.1,0.8c3,0.3,5.2,1,6.4,2.3
		C156.4,95.6,157,97,157,98.5z"/>
	<path class="st2" d="M164.3,86.7c0,1.1-0.3,2-0.9,3s-1.5,1.6-2.6,1.9V91c0.9-0.5,1.5-1.2,1.7-2.3h-0.2c-0.5,0-1-0.2-1.4-0.6
		c-0.4-0.4-0.6-0.8-0.6-1.3c0-0.5,0.2-1,0.6-1.4c0.4-0.4,0.8-0.6,1.4-0.6c0.5,0,1,0.2,1.4,0.6C164.1,85.7,164.3,86.2,164.3,86.7z"/>
</g>
<g class="st1">
	<path class="st2" d="M84.5,137h-3.7v-11.6L74,137L67,125.4V137h-3.6v-19.5h3.4l7.1,12.3l7.1-12.3h3.5V137z"/>
	<path class="st2" d="M105.3,137H89.5v-19.5H105v3.7H93.2v3.6h6.9v3.8h-6.9v4.8h12.1V137z"/>
	<path class="st2" d="M128.8,137h-3.7l-11-13.5V137h-3.7v-19.5h3.6l11,13.7v-13.7h3.8V137z"/>
	<path class="st2" d="M152.5,127.8c0,2.1-0.4,3.8-1.2,5.1c-0.8,1.3-1.9,2.4-3.3,3.3c-1.4,0.8-3,1.2-4.6,1.2s-3.2-0.4-4.6-1.2
		c-1.5-0.8-2.6-1.9-3.4-3.3c-0.8-1.5-1.2-3.2-1.2-5.1v-10.3h3.7v10.3c0,1.2,0.3,2.3,0.8,3.2c0.5,0.8,1.1,1.5,2,2
		c0.9,0.5,1.8,0.7,2.7,0.7c1,0,1.9-0.2,2.7-0.7c0.8-0.5,1.5-1.1,2-2c0.5-0.9,0.8-1.9,0.8-3.2v-10.3h3.7V127.8z"/>
</g>
</svg>
