<?xml version="1.0" encoding="utf-8"?>
<!-- Generator: Adobe Illustrator 27.1.1, SVG Export Plug-In . SVG Version: 6.00 Build 0)  -->
<svg version="1.1" id="Layer_1" xmlns="http://www.w3.org/2000/svg" xmlns:xlink="http://www.w3.org/1999/xlink" x="0px" y="0px"
	 viewBox="0 0 216 216" style="enable-background:new 0 0 216 216;" xml:space="preserve">
<style type="text/css">
	.st0{fill:#FFB53E;}
</style>
<g>
	<g>
		<path class="st0" d="M99.2,207.9c-1.8-0.2-3.6-0.4-5.4-0.7c-2.7-0.4-5.4-1-8.1-1.6l0.7-2.9c2.6,0.6,5.2,1.1,7.8,1.6
			c2.2,0.3,4.5,0.6,6.8,0.8l-0.2,2.9C100.2,208,99.7,208,99.2,207.9z M113.5,208.2l-0.2-2.9c4.9-0.3,9.8-1,14.6-2.1l0.6,2.9
			C123.6,207.2,118.6,207.9,113.5,208.2z M73.6,201.8c-4.7-1.9-9.3-4.1-13.7-6.8l1.5-2.5c4.2,2.5,8.7,4.7,13.3,6.5L73.6,201.8z
			 M140.8,202.4l-1-2.8c4.6-1.7,9.1-3.8,13.4-6.3l1.5,2.6C150.2,198.5,145.5,200.7,140.8,202.4z M49.4,187.8
			c-4-3.2-7.7-6.7-11.1-10.5l2.2-2c3.3,3.7,6.9,7.1,10.7,10.2L49.4,187.8z M165.2,188.9l-1.8-2.3c3.9-3,7.6-6.4,10.9-9.9l2.1,2
			C173,182.3,169.2,185.8,165.2,188.9z M30.5,167.3c-2.9-4.2-5.4-8.7-7.5-13.3l2.7-1.2c2.1,4.5,4.5,8.8,7.3,12.9L30.5,167.3z
			 M184.5,168.7l-2.4-1.7c2.8-4,5.4-8.3,7.5-12.7l2.6,1.3C190.1,160.2,187.5,164.6,184.5,168.7z M18.4,142.1
			c-1.5-4.9-2.6-9.9-3.3-14.9l2.9-0.4c0.7,4.9,1.7,9.7,3.2,14.4L18.4,142.1z M197,143.8l-2.8-0.9c1.5-4.7,2.7-9.5,3.4-14.4l0-0.2
			l2.9,0.5l0,0.2C199.8,134,198.6,139,197,143.8z M14.3,114.5c0-2.8,0.2-5.7,0.4-8.6c0.2-1.8,0.4-3.6,0.7-5.4
			c0.1-0.4,0.1-0.8,0.2-1.2l2.9,0.5c-0.1,0.4-0.1,0.7-0.2,1.1c-0.3,1.7-0.5,3.5-0.7,5.3c-0.3,2.8-0.4,5.6-0.4,8.3L14.3,114.5z
			 M198.7,116c0.1-4.9-0.2-9.9-1-14.8l2.9-0.4c0.7,5,1.1,10.1,1,15.2L198.7,116z M21.4,87.8l-2.8-0.9C20,82,22,77.3,24.2,72.7
			l2.6,1.3C24.7,78.5,22.8,83.1,21.4,87.8z M195.1,89.2c-1.4-4.7-3.2-9.4-5.3-13.8l2.7-1.3c2.2,4.6,4,9.4,5.5,14.2L195.1,89.2z
			 M33.1,63.4l-2.4-1.7c2.9-4.2,6.1-8.2,9.6-11.8l2.1,2C39,55.5,35.9,59.4,33.1,63.4z M183.7,64.7c-2.7-4.1-5.8-8-9.1-11.6l2.2-2
			c3.5,3.7,6.6,7.8,9.4,12L183.7,64.7z M51.6,43.7l-1.8-2.3c4-3.2,8.3-6,12.7-8.5l1.4,2.6C59.6,37.8,55.4,40.6,51.6,43.7z
			 M165.6,44.6c-3.8-3.1-7.9-6-12.1-8.4l1.5-2.5c4.4,2.5,8.6,5.5,12.5,8.7L165.6,44.6z M75,30.2l-1.1-2.7c4.7-1.9,9.7-3.3,14.6-4.4
			l0.6,2.9C84.4,26.9,79.6,28.4,75,30.2z M142.4,30.7c-4.5-1.9-9.3-3.4-14.1-4.5l0.7-2.9c5,1.1,9.9,2.7,14.6,4.6L142.4,30.7z"/>
	</g>
	<path class="st0" d="M113.4,27.7c-0.1,0.2-0.2,0.5-0.3,0.7c-0.7,2.5,0.8,5.1,3.3,5.8c1.2,0.3,2.4,0.2,3.4-0.4l3.5,3.3l0.2-3.1
		l-1.9-1.8c0.3-0.4,0.5-0.9,0.6-1.3c0.7-2.5-0.8-5.1-3.3-5.8c-1.4-0.4-2.9-0.1-4,0.7l-4.2-4l4.2-4c1.1,0.8,2.6,1.1,4,0.7
		c2.5-0.7,4-3.3,3.3-5.8s-3.3-4-5.8-3.3c-2.5,0.7-4,3.3-3.3,5.8c0.1,0.3,0.2,0.5,0.3,0.7l-5.1,3.5L96.2,7.8l-2.4,0.7l11.1,13.4
		L93.8,35.3l2.4,0.7l12.1-11.7L113.4,27.7z M118.1,28.2c0.8,0.2,1.3,1.1,1.1,2c-0.2,0.8-1.1,1.3-2,1.1c-0.8-0.2-1.3-1.1-1.1-2
		C116.4,28.5,117.2,28,118.1,28.2z M116.1,14.5c-0.2-0.8,0.3-1.7,1.1-2c0.8-0.2,1.7,0.3,2,1.1c0.2,0.8-0.3,1.7-1.1,2
		C117.2,15.8,116.4,15.3,116.1,14.5z"/>
</g>
</svg>
