<?xml version="1.0" encoding="utf-8"?>
<!-- Generator: Adobe Illustrator 27.1.1, SVG Export Plug-In . SVG Version: 6.00 Build 0)  -->
<svg version="1.1" id="Layer_1" xmlns="http://www.w3.org/2000/svg" xmlns:xlink="http://www.w3.org/1999/xlink" x="0px" y="0px"
	 viewBox="0 0 72 72" style="enable-background:new 0 0 72 72;" xml:space="preserve">
<style type="text/css">
	.st0{fill:#FFFFFF;}
</style>
<g>
	<g>
		<g>
			<path class="st0" d="M36.1,17L36,17l0-0.1c0.2-2,1.5-3.9,3.2-4.7c1.7-0.8,3.6-0.5,5,0.7l0.1,0.1l0,0.1c-0.4,1.8-1.5,3.3-3.1,4.2
				c-0.8,0.4-1.6,0.6-2.4,0.6C37.8,17.9,36.9,17.6,36.1,17z M39.4,12.6c-1.5,0.7-2.7,2.4-2.9,4.2c1.2,0.8,2.9,0.9,4.4,0.1
				c1.4-0.8,2.5-2.1,2.8-3.7C42.5,12.1,40.9,11.9,39.4,12.6z"/>
		</g>
		<g>
			<path class="st0" d="M30.3,13.3c-0.6-1.9-0.1-4.4,1.2-6.2L31.6,7l0.1,0c1.8,0.2,3.2,1.5,3.7,3.5c0.5,1.9,0.2,4-0.9,5.8l-0.1,0.1
				l-0.1,0c0,0,0,0,0,0C32.4,16.4,30.9,15.2,30.3,13.3z M30.7,13.2c0.5,1.7,1.8,2.7,3.4,2.8c0.9-1.7,1.2-3.6,0.8-5.4
				c-0.5-1.8-1.6-2.9-3.1-3.1C30.6,9.2,30.2,11.4,30.7,13.2z"/>
		</g>
	</g>
	<g>
		<g>
			<path class="st0" d="M34,25.7l-0.1-0.1l0-0.1c-0.1-2,0.8-4,2.4-5.1c1.5-1,3.4-1.1,5-0.1l0.1,0.1l0,0.1c-0.1,1.8-1,3.5-2.4,4.6
				c-0.9,0.7-2,1-3,1C35.3,26.1,34.6,26,34,25.7z M36.5,20.8c-1.4,0.9-2.2,2.7-2.2,4.5c1.3,0.6,3,0.4,4.3-0.6c1.3-1,2.1-2.4,2.2-4.1
				C39.5,19.8,37.9,19.9,36.5,20.8z"/>
		</g>
		<g>
			<path class="st0" d="M27.6,22.9c-0.9-1.8-0.8-4.3,0.2-6.3l0.1-0.1l0.1,0c1.8-0.1,3.4,1,4.2,2.9c0.8,1.8,0.8,3.9,0,5.8l-0.1,0.1
				l-0.1,0c-0.2,0-0.4,0.1-0.7,0.1C29.8,25.4,28.4,24.5,27.6,22.9z M31.8,19.5c-0.7-1.7-2.1-2.6-3.6-2.6c-0.9,1.9-1,4.1-0.2,5.7
				c0.8,1.6,2.2,2.4,3.8,2.2C32.5,23.1,32.5,21.2,31.8,19.5z"/>
		</g>
	</g>
	<g>
		<g>
			<path class="st0" d="M33.2,34.4l-0.1,0l0-0.1c-0.4-2,0.2-4.1,1.6-5.3c1.4-1.3,3.2-1.6,4.9-0.8l0.1,0.1l0,0.1
				c0.2,1.8-0.4,3.6-1.7,4.9c-1,1-2.2,1.5-3.5,1.5C34.1,34.7,33.7,34.6,33.2,34.4z M35,29.3c-1.2,1.1-1.8,3-1.5,4.8
				c1.4,0.4,3,0,4.2-1.2c1.1-1.1,1.7-2.7,1.6-4.3C37.8,27.9,36.2,28.2,35,29.3z"/>
		</g>
		<g>
			<path class="st0" d="M26.5,32.7c-1.2-1.6-1.5-4.1-0.7-6.2l0-0.1l0.1,0c1.7-0.4,3.5,0.5,4.6,2.2c1,1.6,1.4,3.7,0.9,5.8l0,0.1
				l-0.1,0c-0.4,0.1-0.9,0.2-1.3,0.2C28.7,34.6,27.4,33.9,26.5,32.7z M30.1,28.8c-1-1.5-2.5-2.3-3.9-2c-0.6,2-0.3,4.2,0.7,5.7
				c1,1.4,2.6,2,4.1,1.6C31.4,32.1,31.1,30.2,30.1,28.8z"/>
		</g>
	</g>
	<g>
		<g>
			<path class="st0" d="M33.8,43.2l-0.1,0l0-0.1c-0.7-1.9-0.4-4.1,0.8-5.5c1.1-1.4,3-2,4.7-1.6l0.1,0l0,0.1c0.5,1.8,0.1,3.6-0.9,5.1
				c-1,1.3-2.4,2.1-3.9,2.1C34.3,43.3,34,43.3,33.8,43.2z M34.8,37.9c-1,1.3-1.3,3.2-0.7,4.9c1.5,0.2,3-0.5,4-1.8
				c0.9-1.3,1.3-2.9,0.9-4.5C37.3,36.1,35.8,36.6,34.8,37.9z"/>
		</g>
		<g>
			<path class="st0" d="M26.9,42.5c-1.4-1.5-2.1-3.8-1.7-6l0-0.1l0.1,0c1.6-0.6,3.5-0.1,4.9,1.4c1.3,1.4,1.9,3.5,1.8,5.5l0,0.1
				l-0.1,0.1c-0.6,0.3-1.2,0.4-1.8,0.4C28.9,44,27.8,43.5,26.9,42.5z M29.9,38.1c-1.2-1.4-2.8-1.9-4.2-1.4c-0.3,2,0.3,4.2,1.6,5.5
				c1.2,1.2,2.8,1.6,4.3,0.9C31.7,41.2,31.1,39.4,29.9,38.1z"/>
		</g>
	</g>
	<g>
		<g>
			<path class="st0" d="M35.7,51.9l-0.1,0l-0.1-0.1c-1-1.8-1-4-0.1-5.6c0.9-1.6,2.6-2.5,4.5-2.3l0.1,0l0.1,0.1
				c0.7,1.7,0.7,3.6-0.1,5.2C39.1,50.9,37.5,51.9,35.7,51.9C35.8,51.9,35.8,51.9,35.7,51.9z M35.9,46.4c-0.8,1.5-0.8,3.4,0,5
				c1.5,0,2.9-1,3.6-2.4c0.7-1.4,0.8-3.1,0.2-4.6C38.1,44.2,36.6,45,35.9,46.4z"/>
		</g>
		<g>
			<path class="st0" d="M28.8,52.2c-1.6-1.2-2.6-3.5-2.6-5.7l0-0.1l0.1-0.1c1.5-0.9,3.5-0.6,5,0.7c1.5,1.2,2.4,3.1,2.6,5.2l0,0.1
				l-0.1,0.1c-0.7,0.5-1.5,0.8-2.3,0.8C30.6,53.2,29.7,52.9,28.8,52.2z M31.1,47.4c-1.4-1.2-3-1.4-4.4-0.7c0,2.1,0.9,4.1,2.4,5.2
				c1.4,1.1,3.1,1.2,4.4,0.3C33.3,50.2,32.4,48.5,31.1,47.4z"/>
		</g>
	</g>
	<g>
		<g>
			<path class="st0" d="M38.8,60.1c-1.3-1.6-1.7-3.8-1-5.6c0.6-1.7,2.2-2.9,4-3l0.1,0l0.1,0.1c1,1.6,1.2,3.4,0.7,5.2
				c-0.6,1.8-2,3.1-3.7,3.3l-0.1,0L38.8,60.1z M38.3,54.7c-0.6,1.6-0.3,3.5,0.8,5c1.5-0.3,2.7-1.4,3.2-3c0.5-1.6,0.3-3.2-0.6-4.6
				C40.1,52.2,38.8,53.2,38.3,54.7z"/>
		</g>
		<g>
			<path class="st0" d="M32.2,61.6c-1.8-1-3.2-3.1-3.5-5.3l0-0.1l0.1-0.1c1.4-1.1,3.3-1.1,5.1-0.1c1.7,1,2.9,2.8,3.4,4.8l0,0.1
				l-0.1,0.1c-0.8,0.8-1.8,1.2-2.8,1.2C33.8,62.2,33,62,32.2,61.6z M33.7,56.4c-1.6-0.9-3.2-1-4.4,0c0.3,2.1,1.6,3.9,3.2,4.8
				c1.5,0.8,3.2,0.7,4.4-0.4C36.4,58.9,35.2,57.3,33.7,56.4z"/>
		</g>
	</g>
	<g>
		<g>
			<path class="st0" d="M43.4,68c-1.5-1.4-2.3-3.6-1.9-5.4c0.4-1.8,1.7-3.2,3.5-3.6l0.1,0l0.1,0.1c1.2,1.4,1.8,3.3,1.5,5.1
				c-0.3,1.9-1.5,3.4-3.1,3.9l-0.1,0L43.4,68z M42,62.7c-0.3,1.7,0.3,3.6,1.7,4.9c1.4-0.5,2.4-1.8,2.7-3.5c0.2-1.6-0.3-3.3-1.3-4.6
				C43.4,59.9,42.3,61,42,62.7z"/>
		</g>
		<g>
			<path class="st0" d="M37.2,70.5c-2-0.7-3.6-2.6-4.3-4.8l0-0.1l0.1-0.1c1.2-1.3,3.1-1.6,5-0.9c1.8,0.8,3.3,2.3,4.2,4.3l0.1,0.1
				l-0.1,0.1c-0.8,1.1-1.9,1.6-3.2,1.6C38.3,70.8,37.7,70.7,37.2,70.5z M37.7,65.1c-1.7-0.7-3.3-0.5-4.4,0.6c0.7,2,2.2,3.7,4,4.4
				c1.7,0.6,3.3,0.2,4.3-1C40.8,67.2,39.4,65.8,37.7,65.1z"/>
		</g>
	</g>
	<g>
		<path class="st0" d="M37.7,10.2c-1-1.6-0.8-3.9,0.3-5.8c1.1-1.9,3-3.1,4.9-3.2l0.2,0l0.1,0.2c0.6,1.7,0.3,3.8-0.7,5.6
			c-1,1.8-2.7,3-4.5,3.3l-0.2,0L37.7,10.2z M38.4,4.6c-1,1.7-1.1,3.7-0.4,5.2c1.6-0.4,3-1.5,4-3.1c0.9-1.6,1.2-3.5,0.7-5.1
			C41,1.8,39.3,2.9,38.4,4.6z"/>
	</g>
</g>
</svg>
