<?xml version="1.0" encoding="utf-8"?>
<!-- Generator: Adobe Illustrator 27.1.1, SVG Export Plug-In . SVG Version: 6.00 Build 0)  -->
<svg version="1.1" id="Layer_1" xmlns="http://www.w3.org/2000/svg" xmlns:xlink="http://www.w3.org/1999/xlink" x="0px" y="0px"
	 viewBox="0 0 72 72" style="enable-background:new 0 0 72 72;" xml:space="preserve">
<style type="text/css">
	.st0{fill:#FFFFFF;}
</style>
<g>
	<g>
		<g>
			<path class="st0" d="M33.3,17.9c-0.8,0-1.6-0.2-2.4-0.6c-1.6-0.8-2.7-2.4-3.1-4.2l0-0.1l0.1-0.1c1.4-1.2,3.3-1.5,5-0.7
				c1.7,0.8,3,2.7,3.2,4.7l0,0.1L35.9,17C35.1,17.6,34.2,17.9,33.3,17.9z M28.3,13.1c0.4,1.6,1.4,3,2.8,3.7c1.5,0.8,3.1,0.7,4.4-0.1
				c-0.2-1.8-1.4-3.4-2.9-4.2C31.1,11.9,29.5,12.1,28.3,13.1z"/>
		</g>
		<g>
			<path class="st0" d="M37.7,16.4C37.7,16.4,37.7,16.4,37.7,16.4l-0.2,0l-0.1-0.1c-1.1-1.8-1.4-3.9-0.9-5.8c0.5-2,1.9-3.4,3.7-3.5
				l0.1,0l0.1,0.1c1.4,1.8,1.8,4.3,1.2,6.2C41.1,15.2,39.6,16.4,37.7,16.4z M40.2,7.5c-1.5,0.2-2.7,1.4-3.1,3.1
				c-0.4,1.7-0.2,3.7,0.8,5.4c1.6-0.1,2.9-1.1,3.4-2.8C41.8,11.4,41.4,9.2,40.2,7.5z"/>
		</g>
	</g>
	<g>
		<g>
			<path class="st0" d="M36,26.1c-1,0-2.1-0.3-3-1c-1.5-1.1-2.3-2.7-2.4-4.6l0-0.1l0.1-0.1c1.6-1,3.5-1,5,0.1c1.6,1.1,2.5,3,2.4,5.1
				l0,0.1L38,25.7C37.4,26,36.7,26.1,36,26.1z M31.1,20.7c0.1,1.6,0.9,3.1,2.2,4.1c1.3,1,3,1.2,4.3,0.6c0.1-1.8-0.8-3.6-2.2-4.5
				C34.1,19.9,32.5,19.8,31.1,20.7z"/>
		</g>
		<g>
			<path class="st0" d="M40.6,25.4c-0.2,0-0.4,0-0.7-0.1l-0.1,0l-0.1-0.1c-0.8-1.9-0.8-4.1,0-5.8c0.8-1.9,2.4-3,4.2-2.9l0.1,0
				l0.1,0.1c1,2,1.1,4.5,0.2,6.3C43.6,24.5,42.2,25.4,40.6,25.4z M40.1,24.9c1.6,0.2,3-0.6,3.8-2.2c0.8-1.6,0.8-3.9-0.2-5.7
				c-1.5,0-2.9,0.9-3.6,2.6C39.5,21.2,39.5,23.1,40.1,24.9z"/>
		</g>
	</g>
	<g>
		<g>
			<path class="st0" d="M37.4,34.7c-1.2,0-2.5-0.5-3.5-1.5c-1.3-1.3-1.9-3-1.7-4.9l0-0.1l0.1-0.1c1.7-0.7,3.6-0.4,4.9,0.8
				c1.4,1.3,2,3.4,1.6,5.3l0,0.1l-0.1,0C38.3,34.6,37.9,34.7,37.4,34.7z M32.7,28.5c-0.1,1.6,0.4,3.2,1.6,4.3
				c1.2,1.2,2.8,1.6,4.2,1.2c0.3-1.8-0.2-3.6-1.5-4.8C35.8,28.2,34.2,27.9,32.7,28.5z"/>
		</g>
		<g>
			<path class="st0" d="M42,34.6c-0.4,0-0.8-0.1-1.3-0.2l-0.1,0l0-0.1c-0.5-2-0.1-4.1,0.9-5.8c1.1-1.7,2.9-2.6,4.6-2.2l0.1,0l0,0.1
				c0.7,2.1,0.4,4.6-0.7,6.2C44.6,33.9,43.3,34.6,42,34.6z M41,34c1.5,0.4,3.1-0.2,4.1-1.6c1.1-1.5,1.3-3.7,0.7-5.7
				c-1.5-0.3-3,0.5-3.9,2C40.9,30.2,40.6,32.1,41,34z"/>
		</g>
	</g>
	<g>
		<g>
			<path class="st0" d="M37.5,43.3c-1.5,0-2.9-0.8-3.9-2.1c-1.1-1.5-1.4-3.3-0.9-5.1l0-0.1l0.1,0c1.8-0.5,3.6,0.1,4.7,1.6
				c1.2,1.5,1.5,3.6,0.8,5.5l0,0.1l-0.1,0C38,43.3,37.7,43.3,37.5,43.3z M33.1,36.4c-0.4,1.6-0.1,3.2,0.9,4.5c1,1.3,2.5,2,4,1.8
				c0.6-1.7,0.3-3.6-0.7-4.9C36.2,36.6,34.7,36.1,33.1,36.4z"/>
		</g>
		<g>
			<path class="st0" d="M41.9,44c-0.6,0-1.2-0.1-1.8-0.4L40,43.5l0-0.1c-0.1-2.1,0.5-4.1,1.8-5.5c1.4-1.5,3.2-2.1,4.9-1.4l0.1,0
				l0,0.1c0.4,2.2-0.3,4.6-1.7,6C44.2,43.5,43.1,44,41.9,44z M40.4,43.1c1.5,0.7,3.1,0.3,4.3-0.9c1.3-1.3,1.9-3.5,1.6-5.5
				c-1.4-0.5-3,0-4.2,1.4C40.9,39.4,40.3,41.2,40.4,43.1z"/>
		</g>
	</g>
	<g>
		<g>
			<path class="st0" d="M36.2,51.9c-1.7,0-3.3-1-4.1-2.7c-0.8-1.6-0.9-3.5-0.1-5.2l0.1-0.1l0.1,0c1.8-0.2,3.5,0.7,4.5,2.3
				c0.9,1.6,0.9,3.8-0.1,5.6l-0.1,0.1L36.2,51.9C36.2,51.9,36.2,51.9,36.2,51.9z M32.3,44.3c-0.6,1.5-0.6,3.2,0.2,4.6
				c0.8,1.5,2.1,2.4,3.6,2.4c0.9-1.6,0.9-3.6,0-5C35.4,45,33.9,44.2,32.3,44.3z"/>
		</g>
		<g>
			<path class="st0" d="M40.4,53.2c-0.8,0-1.6-0.3-2.3-0.8L38,52.4l0-0.1c0.2-2.1,1.1-4,2.6-5.2c1.6-1.3,3.5-1.6,5-0.7l0.1,0.1
				l0,0.1c0,2.3-1,4.5-2.6,5.7C42.3,52.9,41.4,53.2,40.4,53.2z M38.5,52.1c1.3,0.9,3,0.8,4.4-0.3c1.5-1.1,2.4-3.1,2.4-5.2
				c-1.3-0.7-3-0.5-4.4,0.7C39.6,48.5,38.7,50.2,38.5,52.1z"/>
		</g>
	</g>
	<g>
		<g>
			<path class="st0" d="M33.1,60.2l-0.1,0c-1.7-0.2-3.1-1.5-3.7-3.3c-0.6-1.7-0.3-3.6,0.7-5.2l0.1-0.1l0.1,0c1.9,0.1,3.4,1.2,4,3
				c0.7,1.8,0.3,4-1,5.6L33.1,60.2z M30.3,52.1c-0.9,1.4-1.1,3.1-0.6,4.6c0.5,1.6,1.7,2.7,3.2,3c1.1-1.5,1.4-3.4,0.8-5
				C33.2,53.2,31.9,52.2,30.3,52.1z"/>
		</g>
		<g>
			<path class="st0" d="M37.5,62.2c-1,0-2-0.4-2.8-1.2L34.6,61l0-0.1c0.5-2.1,1.8-3.8,3.4-4.8c1.8-1.1,3.7-1,5.1,0.1l0.1,0.1l0,0.1
				c-0.3,2.3-1.7,4.3-3.5,5.3C39,62,38.2,62.2,37.5,62.2z M35.1,60.8c1.2,1.1,2.8,1.2,4.4,0.4c1.6-0.9,2.9-2.8,3.2-4.8
				c-1.2-0.9-2.9-0.9-4.4,0C36.8,57.3,35.6,58.9,35.1,60.8z"/>
		</g>
	</g>
	<g>
		<g>
			<path class="st0" d="M28.5,68.1l-0.1,0c-1.7-0.5-2.9-2-3.1-3.9c-0.3-1.8,0.3-3.7,1.5-5.1l0.1-0.1l0.1,0c1.8,0.4,3.2,1.7,3.5,3.6
				c0.4,1.9-0.4,4-1.9,5.4L28.5,68.1z M27,59.5c-1.1,1.3-1.6,2.9-1.3,4.6c0.2,1.7,1.3,3,2.7,3.5c1.3-1.3,2-3.2,1.7-4.9
				C29.7,61,28.6,59.9,27,59.5z"/>
		</g>
		<g>
			<path class="st0" d="M33.1,70.8c-1.3,0-2.5-0.6-3.2-1.6l-0.1-0.1l0.1-0.1c0.9-2,2.4-3.6,4.2-4.3c1.9-0.8,3.9-0.5,5,0.9l0.1,0.1
				l0,0.1c-0.7,2.2-2.4,4.1-4.3,4.8C34.3,70.7,33.7,70.8,33.1,70.8z M30.4,69c1,1.3,2.6,1.7,4.3,1c1.8-0.6,3.3-2.4,4-4.4
				c-1.1-1.1-2.7-1.3-4.4-0.6C32.6,65.8,31.2,67.2,30.4,69z"/>
		</g>
	</g>
	<g>
		<path class="st0" d="M34.2,10.3l-0.2,0C32.3,10,30.6,8.8,29.6,7c-1-1.8-1.3-3.9-0.7-5.6L29,1.2l0.2,0c1.9,0,3.8,1.3,4.9,3.2
			c1.1,1.9,1.2,4.2,0.3,5.8L34.2,10.3z M29.3,1.7c-0.5,1.6-0.2,3.5,0.7,5.1c0.9,1.6,2.4,2.7,4,3.1c0.8-1.5,0.6-3.5-0.4-5.2
			C32.7,2.9,31,1.8,29.3,1.7z"/>
	</g>
</g>
</svg>
