<?xml version="1.0" encoding="utf-8"?>
<!-- Generator: Adobe Illustrator 27.1.1, SVG Export Plug-In . SVG Version: 6.00 Build 0)  -->
<svg version="1.1" id="Layer_1" xmlns="http://www.w3.org/2000/svg" xmlns:xlink="http://www.w3.org/1999/xlink" x="0px" y="0px"
	 viewBox="0 0 72 360" style="enable-background:new 0 0 72 360;" xml:space="preserve">
<style type="text/css">
	.st0{fill:#FFFFFF;}
	.st1{fill:#FFB53E;}
</style>
<g>
	<g>
		<g>
			<path class="st0" d="M44.1,126.2l-14.6-3.1v-3l9.1-2.5l-9.1-2.5v-2.9l14.6-3.1v2.8l-8.9,1.9l8.9,2.5v2.7l-8.9,2.5l8.9,1.9V126.2z
				"/>
			<path class="st0" d="M29.6,140.3v-11.8h14.6v11.6h-2.8v-8.8h-2.7v5.1h-2.8v-5.1h-3.6v9H29.6z"/>
			<path class="st0" d="M29.6,155.6v-11.8h14.6v2.8H32.3v9H29.6z"/>
			<path class="st0" d="M32.6,172.3c-2.2-1.6-3.3-3.7-3.3-6.2c0-2.1,0.7-3.8,2.2-5.3c1.5-1.5,3.2-2.2,5.3-2.2c2.1,0,3.9,0.7,5.4,2.2
				c1.5,1.5,2.2,3.3,2.2,5.4c-0.1,2.6-1.1,4.6-3.2,6.1l-1.6-2.3c1.3-1.1,2-2.4,2-3.9c0-1.3-0.5-2.4-1.4-3.4c-0.9-0.9-2-1.4-3.3-1.4
				c-1.3,0-2.5,0.5-3.4,1.4c-0.9,0.9-1.4,2-1.4,3.4c0,1.5,0.7,2.8,2,3.9L32.6,172.3z"/>
			<path class="st0" d="M36.9,190c-2.1,0-3.9-0.7-5.4-2.2c-1.5-1.5-2.2-3.3-2.2-5.4c0-2.1,0.7-3.9,2.2-5.4s3.3-2.2,5.3-2.2
				c2.1,0,3.9,0.7,5.3,2.2c1.4,1.5,2.2,3.3,2.2,5.4c0,2-0.7,3.8-2.2,5.3C40.7,189.3,38.9,190,36.9,190z M36.9,187.3
				c1.3,0,2.4-0.5,3.3-1.4c0.9-0.9,1.4-2.1,1.4-3.4c0-1.3-0.4-2.5-1.3-3.4c-0.9-0.9-2-1.4-3.3-1.4c-1.3,0-2.4,0.5-3.4,1.4
				c-0.9,0.9-1.4,2.1-1.4,3.4c0,1.3,0.5,2.5,1.4,3.4C34.5,186.8,35.6,187.3,36.9,187.3z"/>
			<path class="st0" d="M29.6,209v-2.8h8.6l-8.6-5.1l8.6-5.1h-8.6v-2.7h14.6v2.5l-9.2,5.3l9.2,5.3v2.6H29.6z"/>
			<path class="st0" d="M29.6,224.5v-11.8h14.6v11.6h-2.8v-8.8h-2.7v5.1h-2.8v-5.1h-3.6v9H29.6z"/>
			<path class="st0" d="M41.4,247.2v-4.9H29.6v-2.8h11.8v-4.9h2.8v12.5H41.4z"/>
			<path class="st0" d="M36.9,265.1c-2.1,0-3.9-0.8-5.4-2.2c-1.5-1.5-2.2-3.3-2.2-5.4s0.7-3.9,2.2-5.4c1.5-1.5,3.3-2.2,5.3-2.2
				c2.1,0,3.9,0.7,5.3,2.2s2.2,3.3,2.2,5.4c0,2-0.7,3.8-2.2,5.3C40.7,264.3,38.9,265.1,36.9,265.1z M36.9,262.3
				c1.3,0,2.4-0.5,3.3-1.4c0.9-0.9,1.4-2.1,1.4-3.4s-0.4-2.5-1.3-3.4c-0.9-0.9-2-1.4-3.3-1.4c-1.3,0-2.4,0.5-3.4,1.4
				c-0.9,0.9-1.4,2.1-1.4,3.4s0.5,2.5,1.4,3.4C34.5,261.8,35.6,262.3,36.9,262.3z"/>
			<path class="st0" d="M29.6,289v-2.7h6.3v-8.2h-6.3v-2.8h14.6v2.8h-5.4v8.2h5.4v2.7H29.6z"/>
			<path class="st0" d="M36.4,306.7c-1.5,0-2.8-0.3-3.8-0.9c-1-0.6-1.8-1.4-2.4-2.5c-0.6-1.1-0.9-2.2-0.9-3.4c0-1.2,0.3-2.3,0.9-3.4
				c0.6-1.1,1.4-1.9,2.4-2.5c1.1-0.6,2.3-0.9,3.8-0.9h7.7v2.8h-7.7c-0.9,0-1.7,0.2-2.3,0.6c-0.6,0.3-1.1,0.8-1.5,1.5
				c-0.4,0.6-0.5,1.3-0.5,2c0,0.7,0.2,1.4,0.5,2c0.4,0.6,0.8,1.1,1.5,1.5c0.7,0.4,1.4,0.6,2.3,0.6h7.7v2.7H36.4z"/>
			<path class="st0" d="M35.9,323.7c-1.8,0-3.4-0.6-4.6-1.9c-1.3-1.3-1.9-2.8-1.9-4.7c0-2.1,0.8-3.8,2.3-5.2
				c1.3-1.2,3.1-1.8,5.3-1.8c2.2,0,4.1,0.7,5.5,2.1s2.1,3.2,2.1,5.4c0,1.5-0.4,2.8-1.1,3.9c-0.4,0.7-1.2,1.4-2.1,2.1l-1.6-2.3
				c1.3-1,2-2.2,2-3.7c0-1.4-0.4-2.5-1.3-3.3c-0.9-0.8-2-1.2-3.5-1.2c-1.4,0-2.5,0.4-3.4,1.2c-0.9,0.8-1.3,1.8-1.3,3.1
				c0,1.3,0.4,2.3,1.3,3c0.3,0.3,0.8,0.5,1.3,0.7v-3.3h2.8v6.2H35.9z"/>
			<path class="st0" d="M36.9,341.4c-2.1,0-3.9-0.7-5.4-2.2c-1.5-1.5-2.2-3.3-2.2-5.4c0-2.1,0.7-3.9,2.2-5.4s3.3-2.2,5.3-2.2
				c2.1,0,3.9,0.7,5.3,2.2s2.2,3.3,2.2,5.4c0,2-0.7,3.8-2.2,5.3C40.7,340.7,38.9,341.4,36.9,341.4z M36.9,338.7
				c1.3,0,2.4-0.5,3.3-1.4c0.9-0.9,1.4-2.1,1.4-3.4c0-1.3-0.4-2.5-1.3-3.4c-0.9-0.9-2-1.4-3.3-1.4c-1.3,0-2.4,0.5-3.4,1.4
				c-0.9,0.9-1.4,2.1-1.4,3.4c0,1.3,0.5,2.5,1.4,3.4C34.5,338.2,35.6,338.7,36.9,338.7z"/>
			<path class="st0" d="M33.9,357.7c-1.4,0-2.5-0.6-3.4-1.7s-1.2-2.7-1.2-4.7c0-2.8,0.7-5.2,2.2-7.2l2.3,1.6
				c-1.1,1.6-1.7,3.5-1.7,5.6c0,1.3,0.2,2.2,0.5,2.9s0.8,0.9,1.3,0.9c0.5,0,1-0.3,1.3-0.9c0.3-0.7,0.6-1.7,0.7-3.1
				c0.3-2.4,0.8-4.1,1.5-4.9c0.7-0.8,1.7-1.2,2.8-1.2c1.2,0,2.2,0.6,2.9,1.8s1.1,2.6,1.1,4.3c0,2-0.6,3.9-1.7,5.8l-2.2-1.5
				c0.8-1.3,1.1-2.8,1.1-4.5c0-0.7-0.1-1.4-0.3-2.1c-0.2-0.7-0.5-1-1-0.9c-0.4,0-0.8,0.3-1,0.8c-0.3,0.6-0.5,1.6-0.6,3
				c-0.2,2.3-0.8,3.8-1.7,4.7C36,357.2,35,357.7,33.9,357.7z"/>
		</g>
	</g>
	<g>
		<rect x="35.7" y="0.9" class="st1" width="3" height="81.5"/>
	</g>
</g>
</svg>
